<mxfile host="app.diagrams.net" modified="2021-11-11T09:11:32.544Z" agent="5.0 (Windows NT 10.0; Win64; x64) AppleWebKit/537.36 (KHTML, like Gecko) Chrome/95.0.4638.69 Safari/537.36" etag="N5pyZfnVgg_EUAfGI7PE" version="15.7.1" type="github">
  <diagram id="BfUvREBt8zzxvA4L-FEE" name="Page-1">
    <mxGraphModel dx="1422" dy="762" grid="1" gridSize="10" guides="1" tooltips="1" connect="1" arrows="1" fold="1" page="1" pageScale="1" pageWidth="827" pageHeight="1169" math="0" shadow="0">
      <root>
        <mxCell id="0" />
        <mxCell id="1" parent="0" />
        <mxCell id="qi_WjCr8x0KMcBo8JW7H-2" style="edgeStyle=orthogonalEdgeStyle;rounded=0;orthogonalLoop=1;jettySize=auto;html=1;entryX=0;entryY=0.5;entryDx=0;entryDy=0;" edge="1" parent="1" source="qi_WjCr8x0KMcBo8JW7H-4" target="qi_WjCr8x0KMcBo8JW7H-36">
          <mxGeometry relative="1" as="geometry" />
        </mxCell>
        <mxCell id="qi_WjCr8x0KMcBo8JW7H-3" value="携带信息" style="edgeLabel;html=1;align=center;verticalAlign=middle;resizable=0;points=[];" vertex="1" connectable="0" parent="qi_WjCr8x0KMcBo8JW7H-2">
          <mxGeometry x="-0.1667" relative="1" as="geometry">
            <mxPoint as="offset" />
          </mxGeometry>
        </mxCell>
        <mxCell id="qi_WjCr8x0KMcBo8JW7H-42" style="edgeStyle=orthogonalEdgeStyle;rounded=0;orthogonalLoop=1;jettySize=auto;html=1;" edge="1" parent="1" source="qi_WjCr8x0KMcBo8JW7H-4" target="qi_WjCr8x0KMcBo8JW7H-41">
          <mxGeometry relative="1" as="geometry" />
        </mxCell>
        <mxCell id="qi_WjCr8x0KMcBo8JW7H-4" value="采购入库" style="rounded=1;whiteSpace=wrap;html=1;" vertex="1" parent="1">
          <mxGeometry x="210" y="60" width="120" height="60" as="geometry" />
        </mxCell>
        <mxCell id="qi_WjCr8x0KMcBo8JW7H-36" value="ts_purindt表BillNo = 采购订单号&lt;br&gt;ts_purindt表providerId:=药师帮供应商id&lt;br&gt;ts_purindt表AngleId = batchNo&lt;br&gt;类型：采购入库" style="rounded=0;whiteSpace=wrap;html=1;dashed=1;" vertex="1" parent="1">
          <mxGeometry x="590" y="25" width="200" height="130" as="geometry" />
        </mxCell>
        <mxCell id="qi_WjCr8x0KMcBo8JW7H-44" style="edgeStyle=orthogonalEdgeStyle;rounded=0;orthogonalLoop=1;jettySize=auto;html=1;" edge="1" parent="1" source="qi_WjCr8x0KMcBo8JW7H-41" target="qi_WjCr8x0KMcBo8JW7H-43">
          <mxGeometry relative="1" as="geometry" />
        </mxCell>
        <mxCell id="qi_WjCr8x0KMcBo8JW7H-41" value="supplierId供应商id判断税号是否是子公司【ts_businessdoc查找providerId】" style="rhombus;whiteSpace=wrap;html=1;" vertex="1" parent="1">
          <mxGeometry x="180" y="210" width="180" height="80" as="geometry" />
        </mxCell>
        <mxCell id="qi_WjCr8x0KMcBo8JW7H-43" value="根据note1采购订单号【billNo】和supplierId税号查询销售出库明细【ts_saleoutdt】" style="rounded=0;whiteSpace=wrap;html=1;" vertex="1" parent="1">
          <mxGeometry x="180" y="390" width="180" height="60" as="geometry" />
        </mxCell>
      </root>
    </mxGraphModel>
  </diagram>
</mxfile>
